<?xml version="1.0" encoding="UTF-8"?>
<svg width="150px" height="150px" viewBox="0 0 24 24" version="1.1" xmlns="http://www.w3.org/2000/svg" xmlns:xlink="http://www.w3.org/1999/xlink">
    <!-- Generator: Sketch 42 (36781) - http://www.bohemiancoding.com/sketch -->
    <title>Group</title>
    <desc>Created with Sketch.</desc>
    <defs></defs>
    <g id="Page-1" stroke="none" stroke-width="1" fill="none" fill-rule="evenodd">
        <g id="Simple-line-icons-by-Mirko-Monti" transform="translate(-298.000000, -520.000000)" fill-rule="nonzero" fill="#36D7B7">
            <g id="Group" transform="translate(298.000000, 520.000000)">
                <path d="M16.744,6.8 L9.969,9.703 C9.871,9.745 9.797,9.821 9.754,9.918 L6.85,16.69 C6.788,16.844 6.821,17.024 6.94,17.141 C7.016,17.22 7.124,17.262 7.229,17.262 C7.282,17.262 7.338,17.25 7.389,17.228 L14.164,14.325 C14.262,14.283 14.338,14.207 14.381,14.11 L17.283,7.338 C17.347,7.185 17.314,7.005 17.195,6.886 C17.078,6.769 16.896,6.735 16.744,6.8 Z M8.01,16.073 L10.27,10.797 L13.286,13.813 L8.01,16.073 Z M13.865,13.233 L10.847,10.217 L16.124,7.955 L13.865,13.233 Z" id="Shape"></path>
                <path d="M12.066,0.657 C5.804,0.657 0.709,5.751 0.709,12.013 C0.709,18.274 5.805,23.37 12.066,23.37 C18.33,23.37 23.423,18.273 23.423,12.013 C23.424,5.751 18.33,0.657 12.066,0.657 Z M12.066,22.552 C6.255,22.552 1.529,17.824 1.529,12.014 C1.529,6.204 6.256,1.478 12.066,1.478 C17.876,1.478 22.603,6.205 22.603,12.014 C22.604,17.824 17.877,22.552 12.066,22.552 Z" id="Shape"></path>
                <path d="M12.066,3.696 C12.382,3.696 12.64,3.438 12.64,3.12 C12.64,2.802 12.382,2.544 12.066,2.544 C11.75,2.544 11.492,2.802 11.492,3.12 C11.492,3.438 11.75,3.696 12.066,3.696 Z M12.066,2.876 C12.203,2.876 12.312,2.985 12.312,3.12 C12.312,3.391 11.822,3.391 11.822,3.12 C11.822,2.985 11.932,2.876 12.066,2.876 Z" id="Shape"></path>
                <path d="M12.066,20.334 C11.75,20.334 11.492,20.592 11.492,20.907 C11.492,21.225 11.75,21.483 12.066,21.483 C12.382,21.483 12.64,21.225 12.64,20.907 C12.641,20.592 12.383,20.334 12.066,20.334 Z M11.822,20.907 C11.822,20.772 11.931,20.665 12.066,20.665 C12.203,20.665 12.312,20.772 12.312,20.907 C12.312,21.181 11.822,21.181 11.822,20.907 Z" id="Shape"></path>
                <path d="M20.963,11.439 C20.647,11.439 20.387,11.696 20.387,12.013 C20.387,12.332 20.647,12.59 20.963,12.59 C21.279,12.59 21.537,12.332 21.537,12.013 C21.537,11.696 21.279,11.439 20.963,11.439 Z M20.719,12.014 C20.719,11.877 20.824,11.771 20.963,11.771 C21.098,11.771 21.205,11.879 21.205,12.014 C21.205,12.288 20.719,12.288 20.719,12.014 Z" id="Shape"></path>
                <path d="M3.174,11.439 C2.858,11.439 2.6,11.696 2.6,12.013 C2.6,12.332 2.858,12.59 3.174,12.59 C3.49,12.59 3.748,12.332 3.748,12.013 C3.748,11.696 3.49,11.439 3.174,11.439 Z M2.928,12.014 C2.928,11.879 3.037,11.771 3.174,11.771 C3.309,11.771 3.418,11.879 3.418,12.014 C3.418,12.283 2.928,12.283 2.928,12.014 Z" id="Shape"></path>
            </g>
        </g>
    </g>
</svg>