<?xml version="1.0" encoding="UTF-8"?>
<svg width="155px" height="155px" viewBox="0 0 24 24" version="1.1" xmlns="http://www.w3.org/2000/svg" xmlns:xlink="http://www.w3.org/1999/xlink">
    <!-- Generator: Sketch 42 (36781) - http://www.bohemiancoding.com/sketch -->
    <title>Group</title>
    <desc>Created with Sketch.</desc>
    <defs></defs>
    <g id="Page-1" stroke="none" stroke-width="1" fill="none" fill-rule="evenodd">
        <g id="Simple-line-icons-by-Mirko-Monti" transform="translate(-360.000000, -375.000000)" fill-rule="nonzero" fill="#e0e0e0">
            <g id="Group" transform="translate(360.000000, 375.000000)">
                <path d="M3.908,5.08 C4.488,5.08 4.959,4.61 4.959,4.03 C4.959,3.452 4.488,2.983 3.908,2.983 C3.328,2.983 2.857,3.452 2.857,4.03 C2.857,4.61 3.328,5.08 3.908,5.08 Z M3.908,3.803 C4.035,3.803 4.138,3.906 4.138,4.031 C4.138,4.283 3.677,4.283 3.677,4.031 C3.678,3.906 3.781,3.803 3.908,3.803 Z" id="Shape"></path>
                <path d="M23.277,0.87 L1.254,0.87 C1.029,0.87 0.844,1.055 0.844,1.279 L0.844,23.303 C0.844,23.529 1.03,23.713 1.254,23.713 L23.277,23.713 C23.504,23.713 23.687,23.529 23.687,23.303 L23.687,1.279 C23.688,1.055 23.504,0.87 23.277,0.87 Z M22.867,1.69 L22.867,6.374 L1.664,6.374 L1.664,1.69 L22.867,1.69 Z M1.664,22.894 L1.664,7.193 L22.867,7.193 L22.867,22.894 L1.664,22.894 Z" id="Shape"></path>
                <path d="M12.229,5.112 C12.827,5.112 13.313,4.626 13.313,4.03 C13.313,3.434 12.827,2.951 12.229,2.951 C11.633,2.951 11.149,3.434 11.149,4.03 C11.148,4.626 11.633,5.112 12.229,5.112 Z M12.229,3.771 C12.374,3.771 12.491,3.888 12.491,4.031 C12.491,4.317 11.971,4.32 11.971,4.031 C11.971,3.888 12.086,3.771 12.229,3.771 Z" id="Shape"></path>
                <path d="M4.193,9.246 C4.029,9.09 3.769,9.094 3.613,9.256 C3.457,9.419 3.461,9.678 3.623,9.835 L6.176,12.295 L3.717,14.754 C3.557,14.914 3.557,15.174 3.717,15.334 C3.799,15.414 3.903,15.454 4.008,15.454 C4.113,15.454 4.217,15.414 4.297,15.334 L7.344,12.286 L4.193,9.246 Z" id="Shape"></path>
                <path d="M9.512,14.634 L6.762,14.634 C6.535,14.634 6.352,14.818 6.352,15.044 C6.352,15.269 6.536,15.454 6.762,15.454 L9.512,15.454 C9.735,15.454 9.92,15.269 9.92,15.044 C9.92,14.817 9.734,14.634 9.512,14.634 Z" id="Shape"></path>
                <path d="M8.053,5.112 C8.651,5.112 9.135,4.626 9.135,4.03 C9.135,3.434 8.651,2.951 8.053,2.951 C7.457,2.951 6.973,3.434 6.973,4.03 C6.973,4.626 7.457,5.112 8.053,5.112 Z M8.053,3.771 C8.198,3.771 8.315,3.888 8.315,4.031 C8.315,4.317 7.794,4.32 7.794,4.031 C7.793,3.888 7.91,3.771 8.053,3.771 Z" id="Shape"></path>
            </g>
        </g>
    </g>
</svg>