<?xml version="1.0" encoding="UTF-8"?>
<svg width="155px" height="155px" viewBox="0 0 342 419" version="1.1" xmlns="http://www.w3.org/2000/svg" xmlns:xlink="http://www.w3.org/1999/xlink">
    <!-- Generator: Sketch 42 (36781) - http://www.bohemiancoding.com/sketch -->
    <title>Sketchbook icon</title>
    <desc>Created with Sketch.</desc>
    <defs></defs>
    <g id="Page-1" stroke="none" stroke-width="1" fill="none" fill-rule="evenodd">
        <g id="Sketchbook-icon" fill-rule="nonzero" fill="#e0e0e0">
            <path d="M115.844,214.399 L142.282,273.545 C143.409,276.066 145.912,277.689 148.673,277.689 C151.434,277.689 153.937,276.066 155.064,273.545 L181.52,214.359 C181.691,213.995 182.199,211.867 182.18,211.195 L182.18,42.289 C182.18,40.03 181.746,37.871 180.957,35.89 L180.957,16.875 C180.957,7.57 173.386,0 164.082,0 L133.266,0 C123.96,0 116.39,7.57 116.39,16.875 L116.39,35.886 C115.601,37.868 115.166,40.028 115.166,42.288 L115.166,211.235 C115.154,211.74 115.598,213.882 115.844,214.399 Z M148.672,253.536 L132.962,218.389 L164.383,218.389 L148.672,253.536 Z M130.389,16.875 C130.389,15.316 131.706,14 133.265,14 L164.081,14 C165.64,14 166.956,15.317 166.956,16.875 L166.956,25.065 C166.257,24.979 165.546,24.935 164.824,24.935 L148.815,24.935 C148.719,24.933 148.624,24.933 148.528,24.935 L132.517,24.935 C131.796,24.935 131.086,24.979 130.388,25.065 L130.388,16.875 L130.389,16.875 Z M129.166,42.289 C129.166,39.544 131.52,38.935 132.519,38.935 L141.673,38.935 L141.673,133.439 C141.673,137.305 144.807,140.439 148.673,140.439 C152.539,140.439 155.673,137.305 155.673,133.439 L155.673,38.935 L164.825,38.935 C165.824,38.935 168.179,39.357 168.179,42.289 L168.179,204.389 L129.165,204.389 L129.165,42.289 L129.166,42.289 Z M319.796,24.935 L207.088,24.935 C203.222,24.935 200.088,28.069 200.088,31.935 C200.088,35.801 203.222,38.935 207.088,38.935 L319.796,38.935 C324.095,38.935 327.593,42.433 327.593,46.731 L327.593,396.291 C327.593,400.59 324.095,404.088 319.796,404.088 L63.782,404.088 L63.782,38.935 L90.292,38.935 C94.158,38.935 97.292,35.801 97.292,31.935 C97.292,28.069 94.158,24.935 90.292,24.935 L18.695,24.935 C14.829,24.935 11.695,28.069 11.695,31.935 L11.695,53.367 L7.496,53.367 C3.63,53.367 0.496,56.501 0.496,60.367 C0.496,64.233 3.63,67.367 7.496,67.367 L11.695,67.367 L11.695,107.081 L7.496,107.081 C3.63,107.081 0.496,110.215 0.496,114.081 C0.496,117.947 3.63,121.081 7.496,121.081 L11.695,121.081 L11.695,160.796 L7.496,160.796 C3.63,160.796 0.496,163.93 0.496,167.796 C0.496,171.662 3.63,174.796 7.496,174.796 L11.695,174.796 L11.695,214.511 L7.496,214.511 C3.63,214.511 0.496,217.645 0.496,221.511 C0.496,225.377 3.63,228.511 7.496,228.511 L11.695,228.511 L11.695,268.225 L7.496,268.225 C3.63,268.225 0.496,271.359 0.496,275.225 C0.496,279.091 3.63,282.225 7.496,282.225 L11.695,282.225 L11.695,321.94 L7.496,321.94 C3.63,321.94 0.496,325.074 0.496,328.94 C0.496,332.806 3.63,335.94 7.496,335.94 L11.695,335.94 L11.695,375.654 L7.496,375.654 C3.63,375.654 0.496,378.788 0.496,382.654 C0.496,386.52 3.63,389.654 7.496,389.654 L11.695,389.654 L11.695,411.089 C11.695,414.955 14.829,418.089 18.695,418.089 L319.797,418.089 C331.816,418.089 341.594,408.311 341.594,396.292 L341.594,46.731 C341.593,34.713 331.815,24.935 319.796,24.935 Z M49.782,404.089 L25.695,404.089 L25.695,389.654 L29.894,389.654 C33.76,389.654 36.894,386.52 36.894,382.654 C36.894,378.788 33.76,375.654 29.894,375.654 L25.695,375.654 L25.695,335.94 L29.894,335.94 C33.76,335.94 36.894,332.806 36.894,328.94 C36.894,325.074 33.76,321.94 29.894,321.94 L25.695,321.94 L25.695,282.225 L29.894,282.225 C33.76,282.225 36.894,279.091 36.894,275.225 C36.894,271.359 33.76,268.225 29.894,268.225 L25.695,268.225 L25.695,228.511 L29.894,228.511 C33.76,228.511 36.894,225.377 36.894,221.511 C36.894,217.645 33.76,214.511 29.894,214.511 L25.695,214.511 L25.695,174.796 L29.894,174.796 C33.76,174.796 36.894,171.662 36.894,167.796 C36.894,163.93 33.76,160.796 29.894,160.796 L25.695,160.796 L25.695,121.081 L29.894,121.081 C33.76,121.081 36.894,117.947 36.894,114.081 C36.894,110.215 33.76,107.081 29.894,107.081 L25.695,107.081 L25.695,67.367 L29.894,67.367 C33.76,67.367 36.894,64.233 36.894,60.367 C36.894,56.501 33.76,53.367 29.894,53.367 L25.695,53.367 L25.695,38.935 L49.782,38.935 L49.782,404.089 L49.782,404.089 Z" id="XMLID_834_"></path>
        </g>
    </g>
</svg>