<svg xmlns="http://www.w3.org/2000/svg" viewBox="0 0 1200 1200"><defs><style>.cls-1{fill:#fff;}</style></defs><title>websafeLogo</title><g id="Layer_2" data-name="Layer 2"><g id="_Group_" data-name="&lt;Group&gt;"><path id="_Compound_Path_" data-name="&lt;Compound Path&gt;" class="cls-1" d="M585.83,1170.48C275.66,1170.48,23.31,918.17,23.31,608S275.66,45.48,585.83,45.48,1148.31,297.8,1148.31,608,896,1170.48,585.83,1170.48Zm0-1053.19C315.24,117.29,95.12,337.42,95.12,608s220.13,490.71,490.71,490.71S1076.5,878.55,1076.5,608,856.37,117.29,585.83,117.29Z"/></g><g id="_Group_2" data-name="&lt;Group&gt;"><path id="_Compound_Path_2" data-name="&lt;Compound Path&gt;" class="cls-1" d="M883.74,370.17a64.39,64.39,0,0,1-2.93,11.2c-5.9,16.53-21.2,31.14-39.43,31.14-6,0-46.22-3.52-65.79-7.57-19.19-4-37.67-4.4-57.12-5.78-17.71-1.25-35.5-3.79-53.27-3.79q-15.12,0-16.64,2.52T645,417.55q-4,25.21-12.1,75.62Q613.76,630.3,613.77,802.71q0,117,27.22,160.31c4.83,7.69,9.63,20.19.5,26.78-3.33,2.4-7.55,4-11.35,5.62-6.09,2.55-12.71,4.91-19.4,4.91q-64.54,0-83.69-62.51-9.07-30.25-9.07-116,0-99.82,4-155.27,1-24.2,11.09-116,8.06-71.58,8.07-116c0-9.46.87-19.45-.28-28.77-1.42-3-42.42,2.55-46.39,2.81-21.57,1.41-42.32,2.17-63.94,1.1-28.44-1.4-47.88-.71-75.9-6.28-50.23-10-71.31-22.11-67-49.34,4.87-30.52,25.61-34.89,74.17-39,42.89-3.59,63.79,2.27,106.82,2.67,80.55.76,160.18-12.3,240.86-12.3,32.26,0,116.5,4,140.69,12.1C875,325.85,887.74,345.82,883.74,370.17Z"/></g></g></svg>